<?xml version="1.0" encoding="UTF-8"?>
<svg id="_圖層_2" data-name="圖層 2" xmlns="http://www.w3.org/2000/svg" viewBox="0 0 321.92 60">
  <g id="_圖層_1-2" data-name="圖層 1">
    <path d="M113.92,50.49h-8V30.49s0-12,16-12,16,0,16,0v8h-16s-8,0-8,8"/>
    <rect x="129.92" y="30.49" width="8" height="20"/>
    <rect x="145.92" y="18.49" width="8" height="32"/>
    <rect x="145.92" y="6.49" width="8" height="8"/>
    <path d="M169.92,50.49h-8V30.49s0-12,16-12h32v8h-32s-8,0-8,8"/>
    <rect x="181.92" y="26.49" width="8" height="24"/>
    <rect x="201.92" y="30.49" width="8" height="20"/>
    <path d="M225.92,34.49h-8v-4s0-12,16-12,16,0,16,0v8h-16s-8,0-8,8"/>
    <path d="M225.92,34.49h-8v4s0,12,16,12,4,0,4,0v-8h-4s-8,0-8-8"/>
    <rect x="241.92" y="30.49" width="8" height="20"/>
    <rect x="257.92" y="10.49" width="8" height="40"/>
    <path d="M297.92,34.49h-8v-4s0-12,16-12,16,0,16,0v8h-16s-8,0-8,8"/>
    <path d="M297.92,34.49h-8v4s0,12,16,12,16,0,16,0v-8h-16s-8,0-8-8"/>
    <path d="M321.92,30.49s.35,8-7.65,8h-8s-4.35,0-4.35-4,4.35-4,4.35-4h15.65Z"/>
    <polygon points="280 18.49 290 18.49 276 34.49 290 50.49 280 50.49 266.14 34.11 280 18.49"/>
    <g>
      <polyline points="0 28 34 0 45.92 0 12 28"/>
      <polyline points="0 32 33.67 60 46.33 60 12 32"/>
      <polyline points="46 56 15 30 46 4"/>
    </g>
    <path d="M65.92,50.49h-8V18.49s0-12,16-12h24V14.49h-24s-8,0-8,8"/>
    <rect x="89.92" y="18.49" width="8" height="32"/>
    <rect x="65.92" y="30.49" width="20" height="8"/>
  </g>
</svg>