<?xml version="1.0" encoding="UTF-8"?>
<svg xmlns="http://www.w3.org/2000/svg" xmlns:xlink="http://www.w3.org/1999/xlink" width="128px" height="128px" viewBox="0 0 128 128" version="1.1">
<g id="surface1">
<path style=" stroke:none;fill-rule:nonzero;fill:rgb(87.843138%,87.843138%,87.843138%);fill-opacity:1;" d="M 16 8 L 16 120 L 37.65625 120 C 36.558594 117.476562 35.996094 114.753906 36 112 C 35.980469 106.6875 38.078125 101.589844 41.835938 97.835938 C 45.589844 94.078125 50.6875 91.980469 56 92 C 60.519531 92 64.664062 93.503906 68 96 C 75.105469 90.652344 84.894531 90.652344 92 96 C 97.765625 91.691406 105.394531 90.796875 112 93.65625 L 112 48 L 72 48 L 72 8 Z M 80 8 L 80 40 L 112 40 Z M 80 8 "/>
<path style=" stroke:none;fill-rule:nonzero;fill:rgb(87.843138%,87.843138%,87.843138%);fill-opacity:1;" d="M 64 112 C 64 116.417969 60.417969 120 56 120 C 51.582031 120 48 116.417969 48 112 C 48 107.582031 51.582031 104 56 104 C 60.417969 104 64 107.582031 64 112 M 88 112 C 88 116.417969 84.417969 120 80 120 C 75.582031 120 72 116.417969 72 112 C 72 107.582031 75.582031 104 80 104 C 84.417969 104 88 107.582031 88 112 M 112 112 C 112 116.417969 108.417969 120 104 120 C 99.582031 120 96 116.417969 96 112 C 96 107.582031 99.582031 104 104 104 C 108.417969 104 112 107.582031 112 112 "/>
</g>
</svg>
