<?xml version="1.0" encoding="UTF-8"?>
<svg xmlns="http://www.w3.org/2000/svg" xmlns:xlink="http://www.w3.org/1999/xlink" width="128px" height="128px" viewBox="0 0 128 128" version="1.1">
<g id="surface1">
<path style=" stroke:none;fill-rule:nonzero;fill:rgb(87.843138%,87.843138%,87.843138%);fill-opacity:1;" d="M 24 24 C 19.582031 24 16 27.582031 16 32 L 16 96 C 16 100.417969 19.582031 104 24 104 L 32 104 C 36.417969 104 40 100.417969 40 96 L 40 32 C 40 27.582031 36.417969 24 32 24 Z M 63.800781 24 C 59.464844 24.109375 56.007812 27.648438 56 31.984375 L 56 95.984375 C 56 99.058594 57.761719 101.863281 60.535156 103.199219 C 63.308594 104.53125 66.597656 104.15625 69 102.230469 L 109 70.230469 C 110.890625 68.714844 111.992188 66.417969 111.992188 63.992188 C 111.992188 61.566406 110.890625 59.269531 109 57.753906 L 69 25.753906 C 67.527344 24.574219 65.6875 23.953125 63.800781 24 Z M 63.800781 24 "/>
</g>
</svg>
