<?xml version="1.0" encoding="UTF-8"?>
<svg xmlns="http://www.w3.org/2000/svg" xmlns:xlink="http://www.w3.org/1999/xlink" width="128px" height="128px" viewBox="0 0 128 128" version="1.1">
<g id="surface1">
<path style=" stroke:none;fill-rule:nonzero;fill:rgb(87.843138%,87.843138%,87.843138%);fill-opacity:1;" d="M 104 24 C 108.417969 24 112 27.582031 112 32 L 112 96 C 112 100.417969 108.417969 104 104 104 L 96 104 C 91.582031 104 88 100.417969 88 96 L 88 32 C 88 27.582031 91.582031 24 96 24 Z M 64.199219 24 C 68.535156 24.109375 71.992188 27.648438 72 31.984375 L 72 95.984375 C 72 99.058594 70.238281 101.863281 67.464844 103.199219 C 64.691406 104.53125 61.402344 104.15625 59 102.230469 L 19 70.230469 C 17.109375 68.714844 16.007812 66.417969 16.007812 63.992188 C 16.007812 61.566406 17.109375 59.269531 19 57.753906 L 59 25.753906 C 60.472656 24.574219 62.3125 23.953125 64.199219 24 Z M 64.199219 24 "/>
</g>
</svg>
